<?xml version="1.0" encoding="UTF-8"?><svg id="Layer_2" xmlns="http://www.w3.org/2000/svg" viewBox="0 0 30 20"><defs><style>.cls-1{fill:#fff;}</style></defs><g id="Layer_1-2"><g><path d="M30,20H0V0H30V20Zm-1.24-17.83H1.18L15.17,11.17,28.76,2.17Zm-9.36,8.63l-4.48,2.2-4.05-2.13c-5.27,3.2-6.86,4.54-8.35,6.97H28.72l-9.33-7.05ZM2.16,4.93V15.03l7.07-5.61L2.16,4.93Zm25.66-.11l-7.04,4.68,7.04,5.5V4.82Z"/><path class="cls-1" d="M28.76,2.17L15.17,11.17,1.18,2.17H28.76Z"/><path class="cls-1" d="M19.39,10.81l9.33,7.05H2.51c1.49-2.43,3.08-3.78,8.35-6.97l4.05,2.13,4.48-2.2Z"/><path class="cls-1" d="M2.16,4.93l7.07,4.48L2.16,15.03V4.93Z"/><path class="cls-1" d="M27.82,4.82V14.99l-7.04-5.5,7.04-4.68Z"/></g></g></svg>