<?xml version="1.0" encoding="utf-8"?>
<!-- Generator: Adobe Illustrator 26.3.1, SVG Export Plug-In . SVG Version: 6.00 Build 0)  -->
<svg version="1.1" id="Layer_1" xmlns="http://www.w3.org/2000/svg" xmlns:xlink="http://www.w3.org/1999/xlink" x="0px" y="0px"
	 viewBox="0 0 98 96" style="enable-background:new 0 0 98 96;" xml:space="preserve">
<style type="text/css">
	.st0{fillRule:evenodd;clipRule:evenodd;fill:#24292F;}
</style>
<path class="st0" d="M48.8,36c-6.8,0-12.2,5.5-12.2,12.3c0,5.4,3.5,10,8.4,11.7c0.6,0.1,0.8-0.3,0.8-0.6c0-0.3,0-1.3,0-2.3
	c-3.4,0.7-4.1-1.5-4.1-1.5c-0.5-1.4-1.4-1.8-1.4-1.8c-1.1-0.8,0.1-0.8,0.1-0.8c1.2,0.1,1.9,1.3,1.9,1.3c1.1,1.9,2.9,1.3,3.6,1
	c0.1-0.8,0.4-1.3,0.8-1.7c-2.7-0.3-5.6-1.3-5.6-6.1c0-1.3,0.5-2.4,1.3-3.3c-0.1-0.3-0.5-1.6,0.1-3.3c0,0,1-0.3,3.4,1.3
	c1-0.3,2-0.4,3.1-0.4c1,0,2.1,0.1,3.1,0.4c2.3-1.6,3.4-1.3,3.4-1.3c0.7,1.7,0.2,3,0.1,3.3c0.8,0.9,1.3,2,1.3,3.3
	c0,4.7-2.9,5.8-5.6,6.1c0.4,0.4,0.8,1.1,0.8,2.3c0,1.6,0,3,0,3.4c0,0.3,0.2,0.7,0.8,0.6c4.9-1.6,8.4-6.2,8.4-11.7
	C61,41.5,55.6,36,48.8,36z"/>
</svg>
